#!OML:ASF F:\twosubjects\two\Thursday\Session 1\justin.ASF
:FULLY-SPECIFIED
:DEGREES
276
root 7.11296 9.46762 -18.0368 -25.5487 1.07747 0.59387
lowerback 34.6289 2.4432 -2.83309
upperback 11.5207 2.23309 0.875974
thorax -4.96466 1.01229 1.64475
lowerneck -22.6421 -4.96065 -10.4568
upperneck 12.4466 -5.18283 9.4302
head 8.07049 -2.03163 4.18473
rclavicle 1.28558e-014 -1.12686e-014
rhumerus 28.2625 25.0504 -66.2138
rradius 64.4837
rwrist 13.9404
rhand -11.1677 15.4213
rfingers 7.12502
rthumb 14.8589 -14.0259
lclavicle 1.28558e-014 -1.12686e-014
lhumerus 29.9816 -30.1645 71.9191
lradius 55.0925
lwrist -30.9181
lhand -25.9114 41.0901
lfingers 7.12502
lthumb 0.631324 71.0689
rfemur -66.6365 -23.8401 3.69705
rtibia 100.254
rfoot -5.98411 -0.882452
rtoes -1.75145
lfemur -64.0045 19.4057 -0.132751
ltibia 95.6527
lfoot -7.26141 -17.5293
ltoes -18.3276
277
root 7.11109 9.46649 -18.0345 -25.51 0.960944 0.492133
lowerback 34.7125 2.38244 -2.72871
upperback 11.4206 2.18124 0.819938
thorax -5.09565 0.991813 1.54558
lowerneck -22.4289 -4.87776 -10.2485
upperneck 12.3861 -5.15076 9.41863
head 8.00599 -2.01258 4.15149
rclavicle 4.32512e-015 3.29237e-015
rhumerus 28.0871 25.5577 -66.1093
rradius 64.7145
rwrist 13.5958
rhand -12.483 15.5573
rfingers 7.12502
rthumb 13.5915 -13.9791
lclavicle 4.32512e-015 3.29237e-015
lhumerus 29.2416 -29.8852 72.3317
lradius 55.5753
lwrist -31.2951
lhand -26.1903 41.3555
lfingers 7.12502
lthumb 0.361905 71.3349
rfemur -66.7213 -23.776 3.90244
rtibia 100.278
rfoot -5.95213 -0.905718
rtoes -2.05056
lfemur -64.0328 19.5437 0.0419495
ltibia 95.689
lfoot -7.59353 -17.5028
ltoes -19.8676
278
root 7.10606 9.46407 -18.0324 -25.4506 0.832095 0.44965
lowerback 34.7543 2.38161 -2.74933
upperback 11.3235 2.1673 0.796763
thorax -5.21475 0.986099 1.53451
lowerneck -22.3523 -4.84202 -10.3132
upperneck 12.59 -5.16461 9.74514
head 8.07624 -1.99157 4.27635
rclavicle 1.64805e-014 -1.09332e-015
rhumerus 27.8663 25.8587 -66.4389
rradius 64.759
rwrist 13.6059
rhand -12.9251 15.6949
rfingers 7.12502
rthumb 13.1654 -13.8694
lclavicle 1.64805e-014 -1.09332e-015
lhumerus 28.5628 -29.6897 72.6773
lradius 55.9837
lwrist -31.8843
lhand -26.791 41.8317
lfingers 7.12502
lthumb -0.218274 71.8113
rfemur -66.8476 -23.6612 4.09121
rtibia 100.327
rfoot -5.99518 -0.909061
rtoes -2.90112
lfemur -64.0824 19.699 0.179438
ltibia 95.7017
lfoot -7.52311 -17.574
ltoes -19.9825
279
root 7.10466 9.46232 -18.0291 -25.4703 0.756432 0.39672
lowerback 34.8663 2.41903 -2.61779
upperback 11.2681 2.25419 0.800422
thorax -5.31514 1.0318 1.43514
lowerneck -22.1181 -4.92439 -10.3958
upperneck 12.6089 -5.31091 9.92743
head 8.06813 -2.05296 4.33341
rclavicle -2.05494e-014 -8.94531e-016
rhumerus 27.1777 25.6315 -67.0754
rradius 65.0686
rwrist 14.1663
rhand -12.8919 15.7573
rfingers 7.12502
rthumb 13.1974 -13.805
lclavicle -2.05494e-014 -8.94531e-016
lhumerus 27.9272 -29.7485 73.2181
lradius 56.3481
lwrist -32.4124
lhand -27.2353 41.8655
lfingers 7.12502
lthumb -0.64734 71.8443
rfemur -66.858 -23.5904 4.1856
rtibia 100.346
rfoot -6.09276 -1.07891
rtoes -1.08727
lfemur -64.0093 19.7688 0.286652
ltibia 95.6582
lfoot -8.07857 -17.6215
ltoes -22.6074
280
root 7.10476 9.46613 -18.0302 -25.4467 0.740682 0.402863
lowerback 34.8708 2.46538 -2.47815
upperback 11.3058 2.35976 0.796993
thorax -5.27616 1.08581 1.32166
lowerneck -22.2324 -5.10814 -10.5514
upperneck 12.7152 -5.52019 9.98349
head 8.15196 -2.15102 4.34923
rclavicle -2.12296e-014 -6.06293e-015
rhumerus 26.3734 25.2342 -67.5471
rradius 65.8876
rwrist 14.6408
rhand -12.4826 15.6303
rfingers 7.12502
rthumb 13.5919 -13.906
lclavicle -2.12296e-014 -6.06293e-015
lhumerus 27.516 -29.886 73.554
lradius 56.8764
lwrist -32.6943
lhand -27.115 41.1352
lfingers 7.12502
lthumb -0.53119 71.1143
rfemur -66.892 -23.5501 4.18063
rtibia 100.299
rfoot -6.12063 -1.25387
rtoes 1.13559
lfemur -63.9369 19.7661 0.265521
ltibia 95.5826
lfoot -8.83391 -17.5323
ltoes -25.1901
281
root 7.10393 9.47386 -18.0352 -25.3545 0.776487 0.567665
lowerback 34.7467 2.49756 -2.59809
upperback 11.399 2.36413 0.784684
thorax -5.13369 1.08471 1.37519
lowerneck -22.5184 -5.23297 -10.7352
upperneck 12.7839 -5.60492 9.96589
head 8.23634 -2.19446 4.36041
rclavicle 1.11114e-014 -1.61978e-015
rhumerus 25.903 25.1601 -67.7695
rradius 66.7194
rwrist 14.5832
rhand -11.973 15.3292
rfingers 7.12502
rthumb 14.083 -14.1736
lclavicle 1.11114e-014 -1.61978e-015
lhumerus 27.2341 -29.8166 73.6584
lradius 57.4778
lwrist -32.8037
lhand -27.0784 40.2159
lfingers 7.12502
lthumb -0.495852 70.1951
rfemur -66.9459 -23.5168 4.01643
rtibia 100.234
rfoot -5.98148 -1.06206
rtoes -0.323147
lfemur -64.0244 19.7273 0.0529959
ltibia 95.6011
lfoot -8.36525 -17.3979
ltoes -23.1512
282
root 7.10377 9.47815 -18.0377 -25.2856 0.765916 0.655301
lowerback 34.7048 2.43321 -2.71445
upperback 11.5201 2.24701 0.804862
thorax -4.98659 1.02196 1.50148
lowerneck -22.7792 -5.26697 -10.6578
upperneck 12.6251 -5.56962 9.6133
head 8.20668 -2.20268 4.2265
rclavicle 1.07996e-014 -6.98231e-015
rhumerus 25.8249 25.304 -68.0458
rradius 67.2414
rwrist 14.4794
rhand -11.4456 15.085
rfingers 7.12502
rthumb 14.5912 -14.3817
lclavicle 1.07996e-014 -6.98231e-015
lhumerus 26.831 -29.399 73.7975
lradius 58.0838
lwrist -32.7843
lhand -27.4466 40.1033
lfingers 7.12502
lthumb -0.851448 70.0814
rfemur -66.9709 -23.4603 3.96583
rtibia 100.199
rfoot -5.91857 -0.931841
rtoes -2.53476
lfemur -64.138 19.719 -0.0402779
ltibia 95.651
lfoot -7.3165 -17.3055
ltoes -18.9292
283
root 7.10371 9.47939 -18.0401 -25.2515 0.664624 0.540028
lowerback 34.7446 2.2872 -2.60635
upperback 11.7041 2.10233 0.880649
thorax -4.79607 0.947007 1.57614
lowerneck -23.4853 -5.34362 -10.7703
upperneck 12.7689 -5.5296 9.39493
head 8.36223 -2.19371 4.1726
rclavicle 1.36789e-014 -7.8023e-015
rhumerus 26.1429 25.5107 -68.1413
rradius 67.7492
rwrist 14.1127
rhand -10.695 14.8044
rfingers 7.12502
rthumb 15.3143 -14.6086
lclavicle 1.36789e-014 -7.8023e-015
lhumerus 26.4095 -28.7257 74.0773
lradius 58.6514
lwrist -32.7693
lhand -28.0774 40.6913
lfingers 7.12502
lthumb -1.46068 70.6661
rfemur -66.9894 -23.3655 4.18923
rtibia 100.2
rfoot -6.09749 -1.19898
rtoes -1.95809
lfemur -64.1853 19.7752 0.123364
ltibia 95.6716
lfoot -6.86962 -17.2893
ltoes -16.8463
284
root 7.10697 9.47341 -18.0367 -25.242 0.607417 0.394003
lowerback 34.9119 2.13138 -2.35406
upperback 11.7432 1.98576 0.906904
thorax -4.80346 0.893867 1.5081
lowerneck -23.9037 -5.39344 -11.1065
upperneck 12.9577 -5.47403 9.50353
head 8.50242 -2.16336 4.27431
rclavicle -7.59109e-015 7.00716e-015
rhumerus 26.1112 25.6937 -68.3027
rradius 68.338
rwrist 13.4906
rhand -10.0975 14.4815
rfingers 7.12502
rthumb 15.8898 -14.8866
lclavicle -7.59109e-015 7.00716e-015
lhumerus 25.6269 -28.3631 74.7221
lradius 59.2174
lwrist -33.0905
lhand -28.5377 40.7478
lfingers 7.12502
lthumb -1.90524 70.719
rfemur -66.999 -23.3862 4.35519
rtibia 100.262
rfoot -6.21841 -1.33882
rtoes -0.515558
lfemur -64.1775 19.7521 0.315505
ltibia 95.6993
lfoot -7.22733 -17.3345
ltoes -18.118
285
root 7.11065 9.46626 -18.0323 -25.2273 0.619491 0.371787
lowerback 35.1068 2.02451 -2.21776
upperback 11.6826 1.88823 0.873881
thorax -4.92948 0.851281 1.4308
lowerneck -24.0019 -5.36228 -11.6338
upperneck 13.0678 -5.33511 9.92522
head 8.5702 -2.07944 4.53178
rclavicle 1.63003e-014 -7.05686e-015
rhumerus 25.7011 25.8247 -68.6963
rradius 68.8571
rwrist 13.2024
rhand -9.98057 14.4361
rfingers 7.12502
rthumb 16.0024 -14.923
lclavicle 1.63003e-014 -7.05686e-015
lhumerus 24.8164 -28.2362 75.2939
lradius 59.8186
lwrist -33.6103
lhand -28.2756 40.6506
lfingers 7.12502
lthumb -1.65208 70.624
rfemur -67.0403 -23.4297 4.32294
rtibia 100.31
rfoot -6.12499 -1.26974
rtoes 0.16448
lfemur -64.237 19.673 0.336753
ltibia 95.7732
lfoot -7.63331 -17.2933
ltoes -19.7389
286
root 7.10863 9.46744 -18.0387 -25.1398 0.554287 0.364981
lowerback 35.0521 2.03359 -2.23697
upperback 11.7191 1.89759 0.92157
thorax -4.87357 0.852938 1.48917
lowerneck -24.2604 -5.36623 -12.3009
upperneck 13.3035 -5.21758 10.51
head 8.7184 -1.9923 4.87102
rclavicle 6.80837e-015 5.66536e-015
rhumerus 25.4009 25.8068 -68.9806
rradius 69.374
rwrist 13.2539
rhand -9.86144 14.8231
rfingers 7.12502
rthumb 16.1171 -14.5267
lclavicle 6.80837e-015 5.66536e-015
lhumerus 24.631 -28.0452 75.3694
lradius 60.2529
lwrist -33.5696
lhand -28.4485 40.8755
lfingers 7.12502
lthumb -1.81906 70.8475
rfemur -67.1897 -23.2656 4.40227
rtibia 100.279
rfoot -6.03504 -1.33409
rtoes 0.327727
lfemur -64.4645 19.7191 0.341335
ltibia 95.8777
lfoot -7.62612 -17.2797
ltoes -20.146
287
root 7.10686 9.46563 -18.0414 -24.9962 0.495005 0.353562
lowerback 34.8163 2.0727 -2.29442
upperback 11.8091 1.93875 0.98597
thorax -4.6988 0.867845 1.57859
lowerneck -24.41 -5.39913 -12.4247
upperneck 13.3632 -5.20787 10.5207
head 8.76595 -1.98951 4.89761
rclavicle 2.68359e-015 -9.64106e-015
rhumerus 25.1826 25.6856 -69.2011
rradius 69.7924
rwrist 13.3769
rhand -9.71803 15.5139
rfingers 7.12502
rthumb 16.2552 -13.8247
lclavicle 2.68359e-015 -9.64106e-015
lhumerus 24.5643 -28.1308 75.1877
lradius 60.6214
lwrist -33.1061
lhand -29.4174 41.4345
lfingers 7.12502
lthumb -2.75484 71.3964
rfemur -67.4502 -23.139 4.52181
rtibia 100.268
rfoot -5.96021 -1.41565
rtoes -0.0573457
lfemur -64.6271 19.7914 0.3528
ltibia 95.8768
lfoot -7.57976 -17.3192
ltoes -20.2369
288
root 7.10844 9.46446 -18.0364 -24.9405 0.535404 0.429588
lowerback 34.7464 2.08726 -2.31407
upperback 11.8555 1.95069 0.951521
thorax -4.6233 0.873845 1.55092
lowerneck -24.3655 -5.41033 -12.2138
upperneck 13.2484 -5.23711 10.2456
head 8.70727 -2.02169 4.75787
rclavicle 2.45996e-015 -2.98177e-015
rhumerus 24.8747 25.5791 -69.5145
rradius 70.1289
rwrist 13.5045
rhand -9.97721 15.7754
rfingers 7.12502
rthumb 16.0056 -13.5834
lclavicle 2.45996e-015 -2.98177e-015
lhumerus 24.2645 -28.5965 75.051
lradius 61.0653
lwrist -32.8383
lhand -29.4166 42.0395
lfingers 7.12502
lthumb -2.75401 72.0015
rfemur -67.4967 -23.1788 4.43195
rtibia 100.288
rfoot -6.00459 -1.41049
rtoes -0.154654
lfemur -64.5922 19.7414 0.255897
ltibia 95.8201
lfoot -7.58555 -17.2638
ltoes -19.7533
289
root 7.10868 9.46768 -18.0369 -25.0113 0.426509 0.314321
lowerback 34.9395 2.09656 -2.11338
upperback 11.8224 2.02367 0.964719
thorax -4.72588 0.914174 1.42949
lowerneck -24.015 -5.35695 -11.8556
upperneck 12.9276 -5.23692 9.89599
head 8.51777 -2.04723 4.57029
rclavicle 2.78299e-015 -2.98177e-016
rhumerus 24.1938 25.4882 -70.0339
rradius 70.7335
rwrist 13.6574
rhand -10.1909 15.4797
rfingers 7.12502
rthumb 15.7998 -13.8955
lclavicle 2.78299e-015 -2.98177e-016
lhumerus 23.8324 -28.9126 75.2299
lradius 61.3894
lwrist -32.6886
lhand -28.8905 42.135
lfingers 7.12502
lthumb -2.24594 72.1029
rfemur -67.3404 -23.0409 4.5722
rtibia 100.271
rfoot -6.14543 -1.46366
rtoes 0.203638
lfemur -64.4023 19.7049 0.493518
ltibia 95.7229
lfoot -7.91912 -17.3018
ltoes -21.0655
290
root 7.10863 9.46965 -18.0419 -25.0377 0.215621 0.0698218
lowerback 35.0354 2.09669 -1.85481
upperback 11.8522 2.11311 1.06533
thorax -4.72873 0.959465 1.36625
lowerneck -23.5828 -5.26503 -11.2753
upperneck 12.3394 -5.19381 9.26093
head 8.20464 -2.07151 4.25185
rclavicle 1.25483e-014 -3.57812e-015
rhumerus 23.5084 25.4476 -70.4951
rradius 71.4774
rwrist 13.7412
rhand -10.0288 14.9916
rfingers 7.12502
rthumb 15.9559 -14.3712
lclavicle 1.25483e-014 -3.57812e-015
lhumerus 23.4656 -28.8934 75.5335
lradius 61.6778
lwrist -32.5796
lhand -29.0586 42.3485
lfingers 7.12502
lthumb -2.40833 72.3146
rfemur -67.3447 -22.7465 4.9302
rtibia 100.211
rfoot -6.03112 -1.66018
rtoes 0.560779
lfemur -64.293 19.7609 0.899744
ltibia 95.6312
lfoot -8.25567 -17.3784
ltoes -23.0497
